#!Matlab matrix to amc conversion
:FULLY-SPECIFIED
:DEGREES
16
root 9.192140 16.357400 -29.724600 0.847710 1.634016 -0.002576
lowerback -1.130801 1.829457 5.474756
upperback -2.105796 2.483303 0.714294
thorax -1.308772 1.172625 -2.239795
lowerneck -16.246319 0.527846 -1.152522
upperneck 36.787344 2.061934 -1.907288
head 16.179005 0.436391 -0.267449
rclavicle -0.000000 0.000000
rhumerus -32.600601 -5.303914 -76.636845
rradius 37.447608
rwrist -16.045910
rhand -7.128115 12.490334
rfingers 7.125020
rthumb 18.738186 -16.551627
lclavicle -0.000000 0.000000
lhumerus -63.014848 33.611486 45.633726
lradius 21.485463
lwrist -14.845844
lhand 2.209934 20.421165
lfingers 7.125020
lthumb 27.690043 48.233318
rfemur -3.255193 14.958881 29.385800
rtibia 19.411448
rfoot -16.314793 -19.662346
rtoes 5.961531
lfemur -37.472267 -1.888521 -17.278950
ltibia 30.037703
lfoot -18.784152 17.489529
ltoes -13.825176
17
root 9.191770 16.245600 -29.440800 1.050580 1.634016 0.058612
lowerback -1.445375 1.962536 5.814586
upperback -2.345791 2.645118 0.502163
thorax -1.358529 1.240614 -2.539855
lowerneck -16.288552 0.525583 -1.109237
upperneck 36.843571 1.944722 -1.681335
head 16.219011 0.425820 -0.194557
rclavicle -0.000000 0.000000
rhumerus -32.915710 -5.245850 -76.875710
rradius 36.781975
rwrist -15.589376
rhand -7.136969 12.494579
rfingers 7.125020
rthumb 18.729879 -16.556074
lclavicle -0.000000 0.000000
lhumerus -62.470285 33.017842 45.603256
lradius 22.281869
lwrist -13.053952
lhand 1.222836 21.011496
lfingers 7.125020
lthumb 26.743316 48.978109
rfemur 0.931385 14.818418 29.672227
rtibia 14.015800
rfoot -13.835237 -18.589005
rtoes 1.285489
lfemur -37.397706 -4.560325 -15.431142
ltibia 26.726520
lfoot -19.095635 18.712812
ltoes -12.116301
18
root 9.208550 16.156600 -29.151500 1.181533 1.634016 0.089405
lowerback -1.753860 2.082690 5.968722
upperback -2.575051 2.778584 0.294905
thorax -1.406059 1.298500 -2.797209
lowerneck -16.325023 0.521252 -1.063245
upperneck 36.898030 1.826028 -1.468460
head 16.258384 0.414192 -0.128769
rclavicle -0.000000 0.000000
rhumerus -33.235401 -5.190312 -77.106518
rradius 36.153704
rwrist -15.147115
rhand -7.145311 12.505295
rfingers 7.125020
rthumb 18.722013 -16.552293
lclavicle -0.000000 0.000000
lhumerus -61.924833 32.439411 45.582862
lradius 23.041074
lwrist -11.344024
lhand 0.254301 21.583787
lfingers 7.125020
lthumb 25.814154 49.702284
rfemur 4.578954 14.667116 29.854849
rtibia 10.910907
rfoot -12.108155 -17.536617
rtoes -2.789087
lfemur -37.318150 -6.215043 -14.191300
ltibia 25.190178
lfoot -19.147252 19.302588
ltoes -11.000693
19
root 9.222000 16.080900 -28.855000 1.275943 1.634016 0.115099
lowerback -2.061281 2.199190 6.005942
upperback -2.801496 2.904978 0.081712
thorax -1.452600 1.354741 -3.033745
lowerneck -16.357058 0.514765 -1.012929
upperneck 36.951314 1.702593 -1.254659
head 16.297589 0.401235 -0.065850
rclavicle -0.000000 0.000000
rhumerus -33.566886 -5.136208 -77.337166
rradius 35.529994
rwrist -14.706032
rhand -7.153259 12.522898
rfingers 7.125020
rthumb 18.714473 -16.540122
lclavicle -0.000000 0.000000
lhumerus -61.359911 31.867266 45.572271
lradius 23.787506
lwrist -9.621708
lhand -0.713019 22.145989
lfingers 7.125020
lthumb 24.885938 50.415749
rfemur 7.983546 14.500439 29.956254
rtibia 8.912191
rfoot -10.703147 -16.482505
rtoes -6.657733
lfemur -37.226817 -7.414666 -13.325039
ltibia 24.594348
lfoot -18.951154 19.590765
ltoes -10.028886
20
root 9.232280 16.013400 -28.551200 1.359313 1.634016 0.156803
lowerback -2.372648 2.321025 5.942853
upperback -3.032951 3.044446 -0.148533
thorax -1.499366 1.417558 -3.269577
lowerneck -16.385820 0.505992 -0.956516
upperneck 37.004000 1.571028 -1.025867
head 16.337087 0.386647 -0.001752
rclavicle -0.000000 0.000000
rhumerus -33.917648 -5.082474 -77.575544
rradius 34.878280
rwrist -14.253068
rhand -7.160927 12.548067
rfingers 7.125020
rthumb 18.707153 -16.519044
lclavicle -0.000000 0.000000
lhumerus -60.756274 31.292576 45.571342
lradius 24.545182
lwrist -7.791966
lhand -1.696450 22.705910
lfingers 7.125020
lthumb 23.942064 51.128264
rfemur 11.421474 14.313389 29.988987
rtibia 7.257105
rfoot -9.270078 -15.403957
rtoes -10.695991
lfemur -37.115921 -8.566625 -12.668597
ltibia 24.615459
lfoot -18.461173 19.739518
ltoes -8.809345
21
root 9.239730 15.970900 -28.241000 1.011298 1.634016 0.116626
lowerback -2.724208 2.223220 3.646326
upperback -3.286602 2.945884 -0.843065
thorax -1.631168 1.400214 -2.811596
lowerneck -16.178587 0.305877 -0.973688
upperneck 37.487831 1.046481 -0.539196
head 16.559884 0.240677 0.126340
rclavicle -0.000000 0.000000
rhumerus -35.554161 -6.818088 -77.136866
rradius 32.735918
rwrist -12.200424
rhand -7.216973 13.001064
rfingers 7.125020
rthumb 18.652497 -16.070038
lclavicle -0.000000 0.000000
lhumerus -58.471741 31.057947 46.591408
lradius 25.254022
lwrist -5.847703
lhand -2.789226 23.415965
lfingers 7.125020
lthumb 22.898471 51.988480
rfemur 8.904171 12.609137 27.551779
rtibia 15.647069
rfoot -6.005700 -14.158676
rtoes -12.439707
lfemur -35.115355 -8.040485 -15.912835
ltibia 26.538795
lfoot -15.643529 18.884407
ltoes -7.596094
22
root 9.241850 15.946000 -27.925100 0.750228 1.634016 0.097552
lowerback -3.070869 2.146088 1.647359
upperback -3.531741 2.869743 -1.508633
thorax -1.760219 1.389173 -2.392386
lowerneck -15.979106 0.108579 -1.002139
upperneck 37.977188 0.535880 -0.102278
head 16.785413 0.096964 0.242567
rclavicle -0.000000 0.000000
rhumerus -37.157623 -8.524642 -76.689174
rradius 30.682353
rwrist -10.230669
rhand -7.267450 13.390998
rfingers 7.125020
rthumb 18.603123 -15.686874
lclavicle -0.000000 0.000000
lhumerus -56.446112 30.872371 47.509682
lradius 25.884664
lwrist -4.506748
lhand -3.823585 24.104266
lfingers 7.125020
lthumb 21.910268 52.821587
rfemur 6.517650 10.965719 25.309285
rtibia 23.537903
rfoot -3.418793 -12.977465
rtoes -13.859048
lfemur -33.219705 -7.624761 -18.935782
ltibia 28.035559
lfoot -13.642450 18.130766
ltoes -6.630739
23
root 9.242890 15.925900 -27.604900 0.504958 1.634016 0.065347
lowerback -3.418555 2.075925 -0.299540
upperback -3.777530 2.801200 -2.169161
thorax -1.890237 1.382137 -1.978447
lowerneck -15.778588 -0.089770 -1.043761
upperneck 38.477497 0.025820 0.329798
head 17.016479 -0.047356 0.363239
rclavicle -0.000000 0.000000
rhumerus -38.770463 -10.263528 -76.209407
rradius 28.612341
rwrist -8.262651
rhand -7.313255 13.754887
rfingers 7.125020
rthumb 18.558156 -15.330448
lclavicle -0.000000 0.000000
lhumerus -54.463901 30.724547 48.385768
lradius 26.501061
lwrist -3.427681
lhand -4.834796 24.786224
lfingers 7.125020
lthumb 20.943863 53.646432
rfemur 3.983113 9.309519 23.085261
rtibia 31.469400
rfoot -0.746116 -11.811009
rtoes -15.146607
lfemur -31.322743 -7.254488 -21.929409
ltibia 29.393807
lfoot -11.996591 17.413164
ltoes -5.744084
